<?xml version="1.0" encoding="utf-8"?>
<!-- Generator: Adobe Illustrator 17.1.0, SVG Export Plug-In . SVG Version: 6.00 Build 0)  -->
<!DOCTYPE svg PUBLIC "-//W3C//DTD SVG 1.1//EN" "http://www.w3.org/Graphics/SVG/1.1/DTD/svg11.dtd">
<svg version="1.1" id="Layer_1" xmlns="http://www.w3.org/2000/svg" xmlns:xlink="http://www.w3.org/1999/xlink" x="0px" y="0px"
	 viewBox="0 0 57.6 57.6" enable-background="new 0 0 57.6 57.6" xml:space="preserve">
<path fill="#C5C5C4" d="M50.885,14.756c-1.652,0.729-3.428,1.221-5.291,1.444c1.902-1.135,3.363-2.932,4.05-5.072
	c-1.781,1.051-3.751,1.814-5.85,2.224c-1.68-1.783-4.074-2.896-6.725-2.896c-5.089,0-9.213,4.105-9.213,9.17
	c0,0.72,0.082,1.418,0.239,2.09c-7.656-0.382-14.444-4.033-18.988-9.58c-0.793,1.353-1.246,2.929-1.246,4.609
	c0,3.181,1.627,5.989,4.098,7.632c-1.511-0.048-2.931-0.461-4.172-1.147c0,0.038,0,0.077,0,0.115c0,4.443,3.175,8.148,7.391,8.993
	c-0.774,0.209-1.586,0.321-2.427,0.321c-0.593,0-1.172-0.058-1.733-0.166c1.172,3.642,4.575,6.293,8.606,6.368
	c-3.153,2.459-7.126,3.925-11.443,3.925c-0.742,0-1.477-0.043-2.198-0.127c4.076,2.601,8.919,4.119,14.123,4.119
	c16.946,0,26.212-13.973,26.212-26.09c0-0.398-0.01-0.792-0.026-1.185c1.801-1.293,3.363-2.908,4.597-4.746V14.756z"/>
</svg>
