<?xml version="1.0" encoding="utf-8"?>
<!-- Generator: Adobe Illustrator 17.1.0, SVG Export Plug-In . SVG Version: 6.00 Build 0)  -->
<!DOCTYPE svg PUBLIC "-//W3C//DTD SVG 1.1//EN" "http://www.w3.org/Graphics/SVG/1.1/DTD/svg11.dtd">
<svg version="1.1" id="Layer_1" xmlns="http://www.w3.org/2000/svg" xmlns:xlink="http://www.w3.org/1999/xlink" x="0px" y="0px"
	 viewBox="0 0 57.6 57.6" enable-background="new 0 0 57.6 57.6" xml:space="preserve">
<path fill="#C5C5C4" d="M29.157,42.626c-0.804,0-1.607-0.415-2.437-1.249c-0.329-0.326-0.329-0.857,0-1.185
	c0.327-0.329,0.856-0.329,1.184,0c0.513,0.511,0.924,0.761,1.254,0.761c0.33,0,0.741-0.25,1.254-0.761
	c0.327-0.328,0.856-0.328,1.184,0c0.329,0.328,0.329,0.859,0,1.186C30.763,42.211,29.961,42.626,29.157,42.626 M7.68,29.773
	c0,2.093,0.178,3.991,0.537,5.692c0.357,1.702,0.861,3.177,1.51,4.427c0.648,1.25,1.469,2.345,2.46,3.286
	c0.994,0.941,2.07,1.717,3.234,2.327c1.162,0.61,2.494,1.102,3.993,1.479c1.498,0.375,3.023,0.639,4.574,0.79
	C25.541,47.925,27.248,48,29.112,48c1.863,0,3.576-0.075,5.133-0.225c1.56-0.151,3.088-0.415,4.587-0.79
	c1.498-0.378,2.833-0.87,4.004-1.479c1.172-0.611,2.257-1.387,3.257-2.326c0.998-0.941,1.823-2.038,2.471-3.287
	c0.648-1.25,1.155-2.725,1.522-4.426c0.364-1.702,0.548-3.6,0.548-5.693c0-3.749-1.164-6.978-3.49-9.689
	c0.134-0.361,0.25-0.776,0.347-1.242c0.096-0.467,0.19-1.126,0.281-1.976c0.09-0.851,0.055-1.834-0.102-2.948
	c-0.156-1.114-0.451-2.251-0.883-3.411l-0.336-0.067c-0.223-0.046-0.589-0.031-1.097,0.045c-0.506,0.075-1.099,0.21-1.777,0.406
	c-0.68,0.196-1.555,0.584-2.629,1.164c-1.074,0.578-2.207,1.313-3.4,2.201c-2.03-0.618-4.825-1.263-8.389-1.263
	c-3.564,0-6.368,0.645-8.412,1.263c-1.192-0.888-2.329-1.619-3.412-2.19c-1.08-0.571-1.945-0.964-2.595-1.174
	c-0.648-0.211-1.248-0.346-1.801-0.406c-0.55-0.06-0.905-0.079-1.062-0.056c-0.157,0.022-0.273,0.048-0.346,0.079
	c-0.433,1.16-0.732,2.297-0.895,3.411c-0.164,1.114-0.202,2.093-0.111,2.936c0.09,0.843,0.186,1.505,0.291,1.987
	c0.103,0.482,0.223,0.895,0.357,1.242C8.844,22.779,7.68,26.009,7.68,29.773 M13.408,34.551c0-2.433,0.895-4.642,2.685-6.621
	c0.537-0.604,1.159-1.062,1.867-1.372c0.708-0.312,1.514-0.487,2.417-0.528c0.902-0.042,1.762-0.034,2.582,0.024
	c0.82,0.059,1.835,0.14,3.043,0.24c1.209,0.1,2.253,0.15,3.132,0.15c0.881,0,1.925-0.05,3.132-0.15
	c1.209-0.101,2.224-0.182,3.044-0.24c0.82-0.058,1.681-0.066,2.582-0.024c0.904,0.041,1.712,0.217,2.427,0.528
	c0.717,0.311,1.342,0.768,1.88,1.372c1.791,1.979,2.685,4.188,2.685,6.621c0,1.427-0.15,2.698-0.448,3.815
	c-0.298,1.115-0.674,2.052-1.129,2.807c-0.455,0.756-1.091,1.393-1.912,1.914c-0.821,0.52-1.615,0.922-2.383,1.208
	c-0.768,0.286-1.76,0.507-2.976,0.667c-1.215,0.159-2.304,0.257-3.267,0.29c-0.961,0.033-2.173,0.05-3.635,0.05
	c-1.46,0-2.67-0.016-3.624-0.05c-0.955-0.033-2.039-0.132-3.255-0.29c-1.215-0.159-2.207-0.381-2.974-0.667
	c-0.77-0.286-1.561-0.688-2.382-1.208c-0.821-0.521-1.458-1.159-1.914-1.914c-0.452-0.754-0.831-1.692-1.129-2.807
	C13.557,37.25,13.408,35.978,13.408,34.551 M18.418,33.235c0,2.225,1.203,4.027,2.685,4.027c1.482,0,2.684-1.802,2.684-4.027
	c0-2.224-1.203-4.027-2.684-4.027C19.621,29.208,18.418,31.011,18.418,33.235 M34.526,33.235c0,2.225,1.203,4.027,2.685,4.027
	s2.684-1.802,2.684-4.027c0-2.224-1.203-4.027-2.684-4.027S34.526,31.011,34.526,33.235"/>
</svg>
